<svg width="262" height="304" viewBox="0 0 262 304" fill="none" xmlns="http://www.w3.org/2000/svg">
<rect width="213.864" height="267.994" rx="24" transform="matrix(0.981853 -0.189642 0.189401 0.9819 0.435303 40.5499)" fill="#98D431"/>
<path d="M65.3789 243.599C65.1668 242.5 65.1947 241.483 65.4625 240.548C65.7435 239.611 66.2129 238.842 66.8707 238.239C67.5416 237.634 68.3418 237.242 69.2713 237.063C70.083 236.906 70.8215 236.933 71.4868 237.144C72.1653 237.352 72.7357 237.67 73.1982 238.097L72.899 236.545L75.6678 236.01L77.7664 246.89L74.9976 247.425L74.6907 245.834C74.4357 246.413 74.0269 246.933 73.4642 247.395C72.912 247.841 72.2301 248.143 71.4184 248.299C70.502 248.476 69.6187 248.403 68.7685 248.078C67.9314 247.751 67.2082 247.205 66.599 246.44C66.0003 245.659 65.5936 244.712 65.3789 243.599ZM73.9483 241.985C73.8195 241.317 73.5787 240.773 73.226 240.352C72.8707 239.918 72.4465 239.62 71.9534 239.457C71.4578 239.282 70.9547 239.243 70.4442 239.342C69.9336 239.44 69.4863 239.656 69.1023 239.988C68.7182 240.32 68.4355 240.755 68.254 241.292C68.0831 241.814 68.0608 242.402 68.187 243.057C68.3133 243.712 68.5553 244.262 68.9131 244.709C69.2815 245.141 69.7069 245.445 70.1894 245.624C70.6851 245.8 71.1816 245.84 71.6791 245.744C72.1896 245.645 72.6435 245.428 73.0406 245.094C73.4352 244.746 73.718 244.311 73.8889 243.789C74.0573 243.254 74.0771 242.653 73.9483 241.985ZM82.5294 243.627L87.3797 242.691L87.8153 244.949L79.8427 246.489L79.4146 244.27L82.9319 236.95L78.1994 237.864L77.7638 235.606L85.6579 234.081L86.0859 236.3L82.5294 243.627ZM93.9419 232.318C94.7666 232.159 95.5351 232.2 96.2473 232.443C96.9569 232.673 97.5567 233.107 98.0465 233.745C98.5469 234.368 98.8918 235.171 99.0812 236.153L100.312 242.535L97.5631 243.066L96.404 237.057C96.2373 236.193 95.8938 235.573 95.3734 235.199C94.8505 234.811 94.2159 234.689 93.4697 234.833C92.7104 234.98 92.1537 235.332 91.7995 235.889C91.4558 236.431 91.3674 237.134 91.534 237.998L92.6932 244.007L89.944 244.538L87.1408 230.006L89.89 229.475L90.856 234.482C91.1185 233.943 91.5191 233.485 92.0577 233.11C92.5938 232.721 93.2218 232.457 93.9419 232.318ZM101.163 236.688C100.951 235.588 100.979 234.571 101.246 233.637C101.527 232.7 101.997 231.93 102.655 231.328C103.326 230.723 104.126 230.331 105.055 230.151C105.867 229.994 106.605 230.021 107.271 230.232C107.949 230.441 108.52 230.758 108.982 231.185L108.683 229.634L111.452 229.099L113.55 239.978L110.782 240.513L110.475 238.922C110.22 239.501 109.811 240.022 109.248 240.483C108.696 240.93 108.014 241.231 107.202 241.388C106.286 241.565 105.403 241.491 104.552 241.166C103.715 240.839 102.992 240.293 102.383 239.528C101.784 238.747 101.378 237.801 101.163 236.688ZM109.732 235.073C109.603 234.406 109.363 233.861 109.01 233.441C108.655 233.007 108.23 232.709 107.737 232.546C107.242 232.37 106.739 232.331 106.228 232.43C105.718 232.529 105.27 232.744 104.886 233.076C104.502 233.408 104.219 233.843 104.038 234.381C103.867 234.903 103.845 235.491 103.971 236.145C104.097 236.8 104.339 237.351 104.697 237.798C105.065 238.229 105.491 238.534 105.973 238.712C106.469 238.888 106.966 238.928 107.463 238.832C107.974 238.733 108.427 238.517 108.825 238.182C109.219 237.834 109.502 237.399 109.673 236.877C109.841 236.342 109.861 235.741 109.732 235.073ZM117.212 229.738C117.454 229.094 117.825 228.554 118.325 228.118C118.838 227.679 119.461 227.389 120.194 227.247L120.751 230.134L120.024 230.275C119.16 230.441 118.545 230.771 118.178 231.263C117.824 231.752 117.745 232.501 117.939 233.509L118.985 238.929L116.235 239.46L114.137 228.58L116.886 228.049L117.212 229.738ZM125.419 237.829C124.921 237.925 124.48 237.854 124.094 237.616C123.72 237.362 123.488 237.006 123.4 236.548C123.311 236.09 123.395 235.68 123.651 235.318C123.918 234.941 124.3 234.704 124.797 234.608C125.282 234.514 125.711 234.594 126.086 234.848C126.458 235.088 126.689 235.438 126.777 235.896C126.866 236.354 126.783 236.771 126.529 237.146C126.273 237.507 125.903 237.735 125.419 237.829ZM127.512 231.599C127.3 230.499 127.328 229.482 127.595 228.547C127.876 227.61 128.346 226.841 129.004 226.238C129.675 225.634 130.475 225.241 131.404 225.062C132.216 224.905 132.954 224.932 133.62 225.143C134.298 225.352 134.869 225.669 135.331 226.096L135.032 224.544L137.801 224.01L139.899 234.889L137.13 235.424L136.824 233.833C136.569 234.412 136.16 234.932 135.597 235.394C135.045 235.84 134.363 236.142 133.551 236.299C132.635 236.476 131.752 236.402 130.901 236.077C130.064 235.75 129.341 235.204 128.732 234.439C128.133 233.658 127.726 232.711 127.512 231.599ZM136.081 229.984C135.952 229.316 135.712 228.772 135.359 228.352C135.004 227.918 134.579 227.619 134.086 227.457C133.591 227.281 133.088 227.242 132.577 227.341C132.067 227.439 131.619 227.655 131.235 227.987C130.851 228.319 130.568 228.754 130.387 229.291C130.216 229.813 130.194 230.402 130.32 231.056C130.446 231.711 130.688 232.262 131.046 232.708C131.414 233.14 131.84 233.445 132.322 233.623C132.818 233.799 133.314 233.839 133.812 233.743C134.323 233.644 134.776 233.427 135.174 233.093C135.568 232.745 135.851 232.31 136.022 231.788C136.19 231.253 136.21 230.652 136.081 229.984ZM142.53 219.307L145.334 233.839L142.584 234.37L139.781 219.838L142.53 219.307ZM147.095 220.87C146.611 220.964 146.176 220.891 145.791 220.654C145.416 220.4 145.184 220.044 145.096 219.586C145.008 219.128 145.091 218.718 145.348 218.356C145.614 217.978 145.99 217.743 146.474 217.649C146.959 217.556 147.388 217.636 147.763 217.889C148.148 218.127 148.385 218.475 148.474 218.934C148.562 219.392 148.473 219.81 148.206 220.187C147.95 220.549 147.58 220.776 147.095 220.87ZM148.7 221.904L150.799 232.784L148.05 233.315L145.951 222.435L148.7 221.904ZM154.759 232.162C154.262 232.258 153.82 232.187 153.435 231.949C153.06 231.695 152.828 231.339 152.74 230.881C152.652 230.423 152.736 230.013 152.992 229.651C153.258 229.274 153.64 229.037 154.138 228.941C154.622 228.847 155.052 228.927 155.427 229.181C155.799 229.421 156.029 229.771 156.118 230.229C156.206 230.687 156.123 231.104 155.87 231.479C155.614 231.84 155.244 232.068 154.759 232.162ZM162.813 230.647C161.923 230.819 161.094 230.816 160.327 230.638C159.557 230.447 158.909 230.117 158.384 229.649C157.872 229.177 157.532 228.611 157.364 227.951L160.133 227.416C160.266 227.825 160.536 228.133 160.942 228.34C161.362 228.544 161.84 228.594 162.377 228.49C162.901 228.389 163.286 228.206 163.534 227.941C163.795 227.673 163.893 227.376 163.83 227.049C163.762 226.695 163.528 226.469 163.129 226.369C162.74 226.254 162.133 226.168 161.307 226.11C160.457 226.07 159.75 225.996 159.186 225.888C158.635 225.777 158.128 225.542 157.665 225.184C157.216 224.823 156.92 224.275 156.778 223.542C156.662 222.94 156.726 222.357 156.971 221.794C157.228 221.228 157.65 220.739 158.236 220.327C158.835 219.913 159.573 219.621 160.45 219.452C161.746 219.201 162.844 219.329 163.742 219.834C164.638 220.327 165.232 221.115 165.522 222.2L162.891 222.708C162.768 222.283 162.52 221.978 162.144 221.793C161.78 221.592 161.329 221.543 160.792 221.647C160.295 221.743 159.926 221.909 159.687 222.145C159.46 222.379 159.378 222.66 159.442 222.987C159.512 223.354 159.75 223.6 160.154 223.725C160.556 223.838 161.162 223.918 161.973 223.965C162.796 224.01 163.483 224.087 164.034 224.198C164.585 224.309 165.087 224.552 165.539 224.926C166.002 225.285 166.31 225.823 166.462 226.54C166.583 227.169 166.515 227.766 166.257 228.332C166.013 228.895 165.591 229.384 164.992 229.798C164.404 230.197 163.677 230.48 162.813 230.647ZM167.553 223.865C167.341 222.765 167.369 221.748 167.637 220.814C167.918 219.877 168.387 219.107 169.045 218.505C169.716 217.9 170.516 217.507 171.445 217.328C172.257 217.171 172.996 217.198 173.661 217.409C174.339 217.618 174.91 217.935 175.372 218.362L175.073 216.811L177.842 216.276L179.94 227.155L177.172 227.69L176.865 226.099C176.61 226.678 176.201 227.199 175.638 227.66C175.086 228.106 174.404 228.408 173.593 228.565C172.676 228.742 171.793 228.668 170.943 228.343C170.105 228.016 169.382 227.47 168.773 226.705C168.174 225.924 167.768 224.978 167.553 223.865ZM176.122 222.25C175.994 221.583 175.753 221.038 175.4 220.618C175.045 220.184 174.621 219.886 174.128 219.723C173.632 219.547 173.129 219.508 172.618 219.607C172.108 219.705 171.66 219.921 171.276 220.253C170.892 220.585 170.61 221.02 170.428 221.558C170.257 222.08 170.235 222.668 170.361 223.322C170.487 223.977 170.729 224.528 171.087 224.975C171.456 225.406 171.881 225.711 172.364 225.889C172.859 226.065 173.356 226.105 173.853 226.009C174.364 225.91 174.818 225.694 175.215 225.359C175.609 225.011 175.892 224.576 176.063 224.054C176.231 223.519 176.251 222.918 176.122 222.25ZM190.935 213.747L187.29 231.073L184.364 231.638L185.675 225.762L179.27 216L182.353 215.404L186.627 222.462L188.009 214.312L190.935 213.747ZM203.534 216.712C203.609 217.104 203.651 217.463 203.66 217.787L195.707 219.323C195.923 220.096 196.317 220.658 196.887 221.01C197.458 221.361 198.096 221.469 198.803 221.332C199.824 221.135 200.466 220.556 200.729 219.596L203.694 219.023C203.582 220.131 203.147 221.111 202.388 221.964C201.626 222.804 200.597 223.349 199.301 223.599C198.254 223.801 197.267 223.754 196.341 223.458C195.425 223.146 194.65 222.61 194.014 221.85C193.392 221.087 192.974 220.15 192.759 219.037C192.542 217.911 192.58 216.878 192.874 215.939C193.168 214.999 193.684 214.221 194.42 213.603C195.156 212.986 196.061 212.573 197.135 212.366C198.169 212.166 199.135 212.211 200.032 212.499C200.943 212.785 201.7 213.297 202.305 214.036C202.919 214.759 203.329 215.651 203.534 216.712ZM200.535 216.476C200.385 215.772 200.021 215.258 199.443 214.935C198.862 214.599 198.212 214.501 197.492 214.64C196.811 214.771 196.275 215.092 195.885 215.602C195.505 216.096 195.333 216.72 195.37 217.473L200.535 216.476ZM204.871 216.657C204.659 215.557 204.687 214.54 204.955 213.606C205.236 212.669 205.712 211.898 206.383 211.293C207.053 210.688 207.854 210.296 208.783 210.116C209.49 209.98 210.195 210.007 210.897 210.197C211.596 210.374 212.185 210.681 212.663 211.119L211.667 205.954L214.455 205.415L217.259 219.947L214.47 220.486L214.159 218.876C213.923 219.478 213.528 220.002 212.976 220.449C212.424 220.895 211.742 221.196 210.93 221.353C210.014 221.53 209.131 221.456 208.28 221.132C207.43 220.807 206.7 220.262 206.091 219.497C205.492 218.716 205.086 217.77 204.871 216.657ZM213.44 215.042C213.312 214.375 213.071 213.831 212.718 213.41C212.363 212.976 211.939 212.678 211.446 212.515C210.95 212.339 210.447 212.3 209.936 212.399C209.426 212.498 208.979 212.713 208.594 213.045C208.21 213.377 207.928 213.812 207.746 214.35C207.575 214.872 207.553 215.46 207.679 216.114C207.806 216.769 208.048 217.32 208.405 217.767C208.774 218.198 209.199 218.503 209.682 218.681C210.177 218.857 210.674 218.897 211.171 218.801C211.682 218.702 212.136 218.486 212.533 218.151C212.927 217.803 213.21 217.368 213.381 216.846C213.549 216.311 213.569 215.71 213.44 215.042ZM80.0488 259.567C81.5674 259.274 82.9373 259.301 84.1587 259.649C85.3801 259.997 86.3838 260.625 87.1699 261.532C87.969 262.437 88.4974 263.557 88.755 264.893C88.9621 265.966 88.968 267.018 88.7727 268.047C88.5905 269.073 88.2027 269.949 87.6094 270.675C87.0161 271.401 86.2351 271.857 85.2663 272.044C84.5856 272.176 84.0092 272.144 83.5373 271.95C83.0628 271.743 82.7161 271.389 82.4973 270.888C82.2161 271.472 81.8035 271.973 81.2594 272.39C80.7127 272.795 80.1056 273.061 79.4379 273.19C78.443 273.382 77.6072 273.238 76.9307 272.758C76.2516 272.264 75.8123 271.5 75.6128 270.466C75.4234 269.484 75.4495 268.529 75.6912 267.599C75.9329 266.67 76.3645 265.88 76.986 265.231C77.605 264.568 78.3662 264.149 79.2695 263.975C80.3954 263.757 81.2435 264.001 81.8139 264.706L81.7937 263.65L84.0912 263.207L84.1911 268.687C84.1998 268.943 84.2243 269.176 84.2647 269.386C84.3253 269.7 84.4363 269.923 84.5975 270.055C84.7587 270.187 84.9964 270.222 85.3106 270.162C85.7819 270.07 86.1317 269.772 86.36 269.266C86.6014 268.758 86.7363 268.155 86.7646 267.457C86.806 266.756 86.7623 266.072 86.6335 265.404C86.3279 263.82 85.6074 262.69 84.472 262.013C83.3341 261.323 81.8814 261.148 80.1141 261.49C78.6086 261.78 77.3178 262.41 76.2417 263.378C75.1631 264.333 74.3981 265.507 73.9467 266.897C73.5058 268.273 73.4331 269.726 73.7286 271.258C74.0417 272.881 74.7607 274.039 75.8856 274.732C77.0236 275.422 78.4762 275.596 80.2436 275.255C81.5134 275.01 82.5885 274.564 83.4689 273.919L84.2102 275.65C83.0675 276.414 81.7369 276.942 80.2183 277.236C78.752 277.519 77.4148 277.485 76.2065 277.135C75.0008 276.797 73.9983 276.176 73.1991 275.271C72.3999 274.366 71.8703 273.24 71.6102 271.891C71.239 269.967 71.3469 268.133 71.9341 266.39C72.5344 264.644 73.5394 263.167 74.9492 261.958C76.3721 260.746 78.072 259.949 80.0488 259.567ZM79.908 270.981C80.3793 270.89 80.7848 270.669 81.1245 270.318C81.4642 269.967 81.7011 269.541 81.8353 269.04C81.9826 268.536 82.0057 268.023 81.9047 267.499C81.7986 266.949 81.5622 266.533 81.1954 266.251C80.8287 265.969 80.3769 265.879 79.8402 265.983C79.3558 266.077 78.9594 266.309 78.6509 266.681C78.3399 267.04 78.1251 267.475 78.0066 267.987C77.9011 268.496 77.8989 269.013 77.9999 269.537C78.1034 270.073 78.3164 270.474 78.6389 270.737C78.9613 271.001 79.3843 271.082 79.908 270.981ZM93.6551 260.646C93.9126 260.081 94.3174 259.575 94.8696 259.129C95.4323 258.667 96.113 258.359 96.9115 258.205C97.841 258.025 98.7231 258.092 99.5577 258.406C100.405 258.718 101.127 259.257 101.723 260.025C102.33 260.777 102.741 261.709 102.955 262.822C103.17 263.935 103.138 264.966 102.86 265.916C102.592 266.851 102.124 267.627 101.455 268.245C100.8 268.86 100.008 269.258 99.0783 269.437C98.2797 269.592 97.5412 269.565 96.8628 269.356C96.1974 269.145 95.627 268.828 95.1513 268.403L96.4506 275.139L93.7014 275.67L90.6028 259.606L93.352 259.075L93.6551 260.646ZM100.147 263.364C100.021 262.71 99.7751 262.173 99.4093 261.755C99.054 261.321 98.6298 261.023 98.1367 260.86C97.6567 260.695 97.1614 260.662 96.6509 260.76C96.1534 260.856 95.7074 261.078 95.3128 261.426C94.9287 261.758 94.646 262.193 94.4645 262.731C94.2961 263.266 94.275 263.86 94.4013 264.515C94.5276 265.17 94.7683 265.714 95.1236 266.148C95.492 266.579 95.9174 266.884 96.3999 267.062C96.893 267.225 97.3883 267.258 97.8858 267.162C98.3963 267.064 98.8424 266.842 99.2239 266.496C99.6185 266.149 99.9 265.707 100.068 265.172C100.25 264.635 100.276 264.032 100.147 263.364ZM104.246 262.573C104.034 261.473 104.062 260.456 104.33 259.522C104.611 258.585 105.08 257.815 105.738 257.213C106.409 256.608 107.209 256.216 108.139 256.036C108.95 255.879 109.689 255.906 110.354 256.117C111.033 256.326 111.603 256.643 112.066 257.07L111.766 255.519L114.535 254.984L116.634 265.863L113.865 266.398L113.558 264.807C113.303 265.386 112.894 265.907 112.332 266.368C111.779 266.815 111.097 267.116 110.286 267.273C109.369 267.45 108.486 267.376 107.636 267.051C106.799 266.724 106.076 266.178 105.466 265.413C104.868 264.632 104.461 263.686 104.246 262.573ZM112.816 260.958C112.687 260.291 112.446 259.746 112.093 259.326C111.738 258.892 111.314 258.594 110.821 258.431C110.325 258.255 109.822 258.216 109.312 258.315C108.801 258.414 108.354 258.629 107.97 258.961C107.586 259.293 107.303 259.728 107.121 260.266C106.95 260.788 106.928 261.376 107.054 262.03C107.181 262.685 107.423 263.236 107.781 263.683C108.149 264.114 108.574 264.419 109.057 264.597C109.552 264.773 110.049 264.813 110.546 264.717C111.057 264.618 111.511 264.402 111.908 264.067C112.303 263.719 112.585 263.284 112.756 262.762C112.925 262.227 112.944 261.626 112.816 260.958ZM123.219 253.144C124.515 252.893 125.641 253.104 126.599 253.774C127.554 254.432 128.173 255.493 128.456 256.96L129.687 263.342L126.938 263.873L125.779 257.864C125.612 257 125.269 256.38 124.748 256.006C124.225 255.618 123.591 255.496 122.845 255.64C122.085 255.787 121.529 256.139 121.174 256.696C120.831 257.238 120.742 257.94 120.909 258.804L122.068 264.814L119.319 265.345L117.22 254.465L119.969 253.934L120.231 255.289C120.506 254.747 120.901 254.291 121.413 253.92C121.936 253.534 122.538 253.275 123.219 253.144ZM134.43 250.958C135.242 250.801 135.987 250.827 136.665 251.035C137.341 251.231 137.905 251.55 138.357 251.992L138.058 250.441L140.827 249.906L142.94 260.864C143.135 261.872 143.105 262.808 142.851 263.672C142.599 264.549 142.111 265.295 141.388 265.91C140.667 266.538 139.731 266.963 138.579 267.186C137.034 267.484 135.695 267.369 134.561 266.841C133.44 266.311 132.694 265.436 132.323 264.218L135.053 263.691C135.293 264.161 135.676 264.494 136.203 264.691C136.746 264.898 137.357 264.936 138.038 264.805C138.837 264.651 139.438 264.283 139.842 263.703C140.249 263.135 140.358 262.367 140.172 261.399L139.846 259.71C139.591 260.289 139.182 260.809 138.619 261.271C138.07 261.73 137.395 262.037 136.597 262.191C135.68 262.368 134.797 262.294 133.947 261.969C133.097 261.645 132.367 261.1 131.758 260.335C131.159 259.554 130.752 258.607 130.538 257.495C130.326 256.395 130.353 255.378 130.621 254.443C130.902 253.506 131.372 252.737 132.03 252.134C132.7 251.53 133.501 251.137 134.43 250.958ZM139.107 255.88C138.978 255.213 138.738 254.668 138.385 254.248C138.03 253.814 137.605 253.515 137.112 253.353C136.617 253.177 136.114 253.138 135.603 253.237C135.092 253.335 134.645 253.551 134.261 253.883C133.877 254.215 133.594 254.65 133.413 255.188C133.242 255.709 133.22 256.298 133.346 256.952C133.472 257.607 133.714 258.158 134.072 258.605C134.44 259.036 134.866 259.341 135.348 259.519C135.844 259.695 136.34 259.735 136.838 259.639C137.348 259.54 137.802 259.324 138.199 258.989C138.594 258.641 138.877 258.206 139.048 257.684C139.216 257.149 139.236 256.548 139.107 255.88ZM150.475 259.51C149.428 259.713 148.441 259.666 147.515 259.369C146.586 259.06 145.797 258.526 145.149 257.769C144.513 257.009 144.088 256.072 143.874 254.96C143.659 253.847 143.712 252.818 144.032 251.874C144.365 250.927 144.913 250.142 145.676 249.519C146.436 248.883 147.34 248.464 148.387 248.262C149.434 248.06 150.429 248.112 151.371 248.419C152.31 248.713 153.104 249.239 153.752 249.996C154.414 250.751 154.852 251.685 155.067 252.798C155.281 253.911 155.216 254.942 154.869 255.891C154.536 256.838 153.983 257.631 153.209 258.269C152.447 258.892 151.535 259.305 150.475 259.51ZM150.013 257.114C150.51 257.018 150.952 256.811 151.339 256.492C151.736 256.157 152.019 255.722 152.187 255.187C152.356 254.652 152.373 254.038 152.239 253.344C152.04 252.31 151.612 251.571 150.956 251.127C150.311 250.668 149.595 250.514 148.81 250.666C148.024 250.817 147.417 251.226 146.989 251.893C146.572 252.544 146.463 253.387 146.662 254.421C146.862 255.455 147.271 256.205 147.89 256.669C148.52 257.118 149.227 257.266 150.013 257.114ZM159.377 257.75C158.879 257.846 158.438 257.775 158.052 257.537C157.678 257.284 157.446 256.928 157.358 256.47C157.269 256.012 157.353 255.602 157.609 255.24C157.876 254.862 158.258 254.626 158.755 254.53C159.24 254.436 159.669 254.516 160.044 254.77C160.417 255.01 160.647 255.359 160.735 255.818C160.824 256.276 160.741 256.692 160.487 257.067C160.231 257.429 159.861 257.657 159.377 257.75ZM162.279 244.418C161.795 244.511 161.36 244.439 160.975 244.201C160.6 243.948 160.368 243.592 160.28 243.134C160.192 242.675 160.275 242.265 160.532 241.904C160.798 241.526 161.174 241.291 161.658 241.197C162.143 241.104 162.572 241.184 162.947 241.437C163.332 241.675 163.569 242.023 163.658 242.481C163.746 242.94 163.657 243.357 163.39 243.735C163.134 244.097 162.764 244.324 162.279 244.418ZM163.884 245.452L165.983 256.332L163.234 256.863L161.135 245.983L163.884 245.452ZM172.599 243.606C173.895 243.356 175.022 243.566 175.979 244.236C176.935 244.894 177.554 245.956 177.836 247.422L179.068 253.804L176.318 254.335L175.159 248.326C174.993 247.462 174.649 246.843 174.129 246.468C173.606 246.08 172.971 245.958 172.225 246.102C171.466 246.249 170.909 246.601 170.555 247.158C170.211 247.7 170.123 248.403 170.289 249.267L171.448 255.276L168.699 255.807L166.601 244.928L169.35 244.397L169.611 245.752C169.887 245.209 170.281 244.753 170.793 244.383C171.316 243.996 171.918 243.738 172.599 243.606Z" fill="white"/>
<path d="M110.805 149.461L131.943 157.74L148.484 142.183L127.345 133.903L110.805 149.461ZM153.194 141.273L157.792 165.11C158.036 166.374 157.773 167.683 157.062 168.748C156.352 169.812 155.25 170.546 154.001 170.787L116.322 178.065C115.073 178.306 113.778 178.035 112.722 177.312C111.667 176.588 110.937 175.472 110.693 174.207L106.095 150.37C105.759 148.63 106.388 146.951 107.593 145.853L126.26 128.278L150.123 137.638C151.65 138.209 152.858 139.533 153.194 141.273Z" fill="white"/>
</svg>
