<svg width="57" height="65" viewBox="0 0 57 65" fill="none" xmlns="http://www.w3.org/2000/svg">
<rect x="0.517456" y="27.9375" width="8.27243" height="21.5661" rx="4.13621" fill="#4B10A0"/>
<rect x="47.7572" y="27.9375" width="8.27243" height="21.5661" rx="4.13621" fill="#4B10A0"/>
<rect x="7.1571" y="25.2148" width="7.40164" height="27.0121" rx="3.70082" fill="#4B10A0"/>
<rect x="41.7709" y="25.2148" width="7.40164" height="27.0121" rx="3.70082" fill="#4B10A0"/>
<path fill-rule="evenodd" clip-rule="evenodd" d="M27.3481 1.52488C19.3737 1.52488 13.5331 6.36469 9.30148 12.3143C7.99484 14.1515 7.07731 16.447 6.4779 18.6059C5.88065 20.7569 5.61412 22.7178 5.57856 23.865V29.6806H4.05469V23.842L4.05503 23.8307C4.09342 22.5438 4.383 20.4546 5.00965 18.1977C5.63607 15.9415 6.6143 13.4627 8.05995 11.4301C12.4273 5.28972 18.6688 0 27.3481 0C35.9134 0 44.7208 4.69117 48.7914 11.48C52.0039 16.8378 52.5463 20.788 52.5463 23.8534V29.6806H51.0225V23.8534C51.0225 21.0372 50.5417 17.363 47.4847 12.2645C43.7182 5.98296 35.4365 1.52488 27.3481 1.52488Z" fill="#4B10A0"/>
<path fill-rule="evenodd" clip-rule="evenodd" d="M46.3605 51.6442C43.7229 59.8399 35.7129 61.385 32.0903 61.1573L32.1859 59.6354C35.4933 59.8433 42.5841 58.404 44.91 51.1768L46.3605 51.6442Z" fill="#4B10A0"/>
<rect x="22.1784" y="56.0391" width="10.6671" height="8.8225" rx="4.41125" fill="#4B10A0"/>
</svg>
