<svg width="255" height="299" viewBox="0 0 255 299" fill="none" xmlns="http://www.w3.org/2000/svg">
<rect width="213.862" height="267.995" rx="24" transform="matrix(0.987051 -0.160404 0.160198 0.987085 0.419922 34.3047)" fill="#430897"/>
<path d="M73.7629 262.592L70.0318 263.199L70.6534 267.028L68.0476 267.452L67.426 263.622L63.6949 264.228L63.3041 261.82L67.0351 261.214L66.4135 257.384L69.0194 256.96L69.6409 260.79L73.372 260.184L73.7629 262.592ZM79.9109 263.417C80.1102 263.979 80.4197 264.388 80.8395 264.644C81.2702 264.884 81.8015 264.953 82.4332 264.851C83.2492 264.718 83.7869 264.286 84.0465 263.555C84.3039 262.811 84.3023 261.636 84.0418 260.03C83.8074 260.501 83.4331 260.899 82.9188 261.226C82.4176 261.551 81.8512 261.764 81.2195 261.867C80.3772 262.004 79.5861 261.957 78.8462 261.726C78.1174 261.479 77.5 261.046 76.9941 260.426C76.4861 259.793 76.152 258.982 75.9918 257.995C75.7547 256.534 76.001 255.306 76.7308 254.309C77.4584 253.299 78.5724 252.672 80.0727 252.429C81.9415 252.125 83.3548 252.51 84.3125 253.583C85.2833 254.655 85.9642 256.395 86.3551 258.803C86.6328 260.514 86.7089 261.941 86.5835 263.082C86.4712 264.222 86.0991 265.133 85.4671 265.817C84.8483 266.498 83.9203 266.939 82.6832 267.14C81.7093 267.299 80.8503 267.249 80.1061 266.992C79.3598 266.721 78.7533 266.313 78.2866 265.768C77.8308 265.207 77.5168 264.562 77.3446 263.834L79.9109 263.417ZM81.4267 259.523C82.1111 259.412 82.6165 259.114 82.943 258.628C83.2695 258.143 83.375 257.545 83.2597 256.834C83.1337 256.058 82.8259 255.493 82.3364 255.141C81.8579 254.773 81.2634 254.646 80.5527 254.762C79.842 254.877 79.3124 255.193 78.9639 255.709C78.6264 256.209 78.5164 256.822 78.6339 257.546C78.7471 258.243 79.0374 258.784 79.5048 259.167C79.9833 259.535 80.6239 259.654 81.4267 259.523ZM87.4691 254.185L87.0558 251.638L91.8134 250.865L94.1491 265.257L91.3064 265.719L89.384 253.874L87.4691 254.185ZM104.125 259.482C104.324 260.044 104.633 260.453 105.053 260.709C105.484 260.949 106.015 261.018 106.647 260.916C107.463 260.783 108.001 260.351 108.26 259.62C108.518 258.876 108.516 257.701 108.255 256.095C108.021 256.566 107.647 256.964 107.132 257.291C106.631 257.616 106.065 257.829 105.433 257.932C104.591 258.069 103.8 258.022 103.06 257.791C102.331 257.544 101.714 257.111 101.208 256.491C100.7 255.858 100.366 255.047 100.205 254.06C99.9683 252.599 100.215 251.371 100.944 250.374C101.672 249.364 102.786 248.737 104.286 248.494C106.155 248.19 107.568 248.575 108.526 249.649C109.497 250.72 110.178 252.46 110.569 254.868C110.846 256.579 110.922 258.006 110.797 259.147C110.685 260.287 110.313 261.198 109.681 261.882C109.062 262.563 108.134 263.004 106.897 263.205C105.923 263.364 105.064 263.314 104.32 263.057C103.573 262.786 102.967 262.378 102.5 261.833C102.044 261.272 101.73 260.627 101.558 259.899L104.125 259.482ZM105.64 255.588C106.325 255.477 106.83 255.179 107.157 254.693C107.483 254.208 107.589 253.61 107.473 252.899C107.347 252.123 107.039 251.558 106.55 251.206C106.072 250.838 105.477 250.711 104.766 250.827C104.056 250.942 103.526 251.258 103.177 251.774C102.84 252.275 102.73 252.887 102.847 253.611C102.961 254.308 103.251 254.849 103.718 255.232C104.197 255.6 104.838 255.719 105.64 255.588ZM116.482 257.474C116.681 258.036 116.991 258.445 117.41 258.701C117.841 258.941 118.373 259.01 119.004 258.908C119.82 258.775 120.358 258.343 120.618 257.612C120.875 256.868 120.873 255.693 120.613 254.087C120.378 254.558 120.004 254.956 119.49 255.283C118.989 255.607 118.422 255.821 117.791 255.924C116.948 256.061 116.157 256.014 115.417 255.783C114.688 255.536 114.071 255.103 113.565 254.483C113.057 253.849 112.723 253.039 112.563 252.052C112.326 250.591 112.572 249.362 113.302 248.366C114.029 247.356 115.143 246.729 116.644 246.485C118.513 246.182 119.926 246.567 120.883 247.64C121.854 248.712 122.535 250.452 122.926 252.86C123.204 254.571 123.28 255.997 123.155 257.139C123.042 258.278 122.67 259.19 122.038 259.874C121.419 260.555 120.491 260.996 119.254 261.197C118.28 261.355 117.421 261.306 116.677 261.049C115.931 260.778 115.324 260.37 114.858 259.825C114.402 259.264 114.088 258.619 113.916 257.891L116.482 257.474ZM117.998 253.58C118.682 253.469 119.188 253.171 119.514 252.685C119.84 252.2 119.946 251.602 119.831 250.891C119.705 250.115 119.397 249.55 118.907 249.197C118.429 248.829 117.834 248.703 117.124 248.819C116.413 248.934 115.883 249.25 115.535 249.766C115.197 250.266 115.087 250.879 115.205 251.602C115.318 252.3 115.608 252.84 116.076 253.224C116.554 253.592 117.195 253.711 117.998 253.58ZM132.008 248.021C131.786 247.49 131.489 247.112 131.115 246.889C130.754 246.664 130.271 246.601 129.666 246.699C128.758 246.847 128.146 247.325 127.832 248.132C127.528 248.924 127.503 250.144 127.757 251.792C127.987 251.214 128.382 250.731 128.94 250.343C129.496 249.942 130.13 249.684 130.84 249.568C131.696 249.429 132.483 249.49 133.2 249.752C133.918 250.014 134.519 250.47 135.003 251.121C135.485 251.758 135.806 252.571 135.966 253.558C136.117 254.492 136.062 255.359 135.8 256.158C135.549 256.942 135.095 257.596 134.437 258.122C133.78 258.648 132.951 258.992 131.95 259.154C130.582 259.377 129.453 259.249 128.566 258.772C127.691 258.293 127.008 257.539 126.517 256.512C126.037 255.468 125.668 254.151 125.409 252.558C125.018 250.15 125.138 248.266 125.769 246.907C126.397 245.535 127.606 244.704 129.396 244.413C130.778 244.189 131.911 244.389 132.796 245.015C133.681 245.642 134.274 246.504 134.574 247.604L132.008 248.021ZM130.577 251.941C129.88 252.054 129.327 252.354 128.92 252.839C128.512 253.324 128.371 253.954 128.497 254.731C128.623 255.507 128.94 256.084 129.447 256.461C129.967 256.836 130.628 256.958 131.431 256.827C132.142 256.712 132.666 256.404 133.003 255.903C133.354 255.4 133.469 254.781 133.35 254.044C133.226 253.28 132.924 252.708 132.443 252.327C131.976 251.943 131.354 251.815 130.577 251.941ZM141.467 253.413C141.666 253.975 141.975 254.384 142.395 254.64C142.826 254.881 143.357 254.95 143.989 254.847C144.805 254.715 145.343 254.283 145.602 253.552C145.86 252.808 145.858 251.633 145.598 250.027C145.363 250.497 144.989 250.896 144.475 251.223C143.973 251.547 143.407 251.761 142.775 251.863C141.933 252 141.142 251.953 140.402 251.722C139.673 251.476 139.056 251.043 138.55 250.423C138.042 249.789 137.708 248.979 137.548 247.992C137.31 246.531 137.557 245.302 138.287 244.306C139.014 243.296 140.128 242.669 141.628 242.425C143.497 242.122 144.911 242.506 145.868 243.58C146.839 244.652 147.52 246.392 147.911 248.8C148.189 250.511 148.265 251.937 148.139 253.079C148.027 254.218 147.655 255.13 147.023 255.813C146.404 256.495 145.476 256.936 144.239 257.137C143.265 257.295 142.406 257.246 141.662 256.988C140.916 256.718 140.309 256.31 139.842 255.764C139.387 255.204 139.073 254.559 138.9 253.83L141.467 253.413ZM142.983 249.52C143.667 249.409 144.172 249.11 144.499 248.625C144.825 248.14 144.931 247.542 144.815 246.831C144.689 246.055 144.382 245.49 143.892 245.137C143.414 244.769 142.819 244.643 142.108 244.758C141.398 244.874 140.868 245.19 140.52 245.706C140.182 246.206 140.072 246.818 140.19 247.542C140.303 248.24 140.593 248.78 141.061 249.164C141.539 249.532 142.18 249.65 142.983 249.52ZM153.824 251.405C154.023 251.967 154.333 252.376 154.753 252.632C155.183 252.873 155.715 252.942 156.346 252.839C157.162 252.707 157.7 252.275 157.96 251.544C158.217 250.799 158.216 249.624 157.955 248.019C157.721 248.489 157.346 248.888 156.832 249.214C156.331 249.539 155.764 249.753 155.133 249.855C154.29 249.992 153.499 249.945 152.759 249.714C152.031 249.468 151.413 249.035 150.907 248.414C150.399 247.781 150.065 246.971 149.905 245.984C149.668 244.523 149.914 243.294 150.644 242.297C151.372 241.288 152.486 240.661 153.986 240.417C155.855 240.113 157.268 240.498 158.226 241.572C159.197 242.643 159.877 244.383 160.268 246.792C160.546 248.503 160.622 249.929 160.497 251.071C160.384 252.21 160.012 253.122 159.38 253.805C158.761 254.487 157.833 254.928 156.596 255.129C155.623 255.287 154.763 255.238 154.019 254.98C153.273 254.71 152.666 254.302 152.2 253.756C151.744 253.195 151.43 252.551 151.258 251.822L153.824 251.405ZM155.34 247.512C156.024 247.4 156.53 247.102 156.856 246.617C157.183 246.132 157.288 245.534 157.173 244.823C157.047 244.046 156.739 243.482 156.25 243.129C155.771 242.761 155.177 242.635 154.466 242.75C153.755 242.866 153.226 243.181 152.877 243.697C152.54 244.198 152.43 244.81 152.547 245.534C152.66 246.232 152.951 246.772 153.418 247.155C153.896 247.523 154.537 247.642 155.34 247.512ZM164.812 245.952C163.385 245.482 162.555 244.529 162.322 243.095C162.207 242.384 162.28 241.71 162.541 241.073C162.813 240.421 163.284 239.865 163.952 239.405C164.631 238.93 165.497 238.607 166.55 238.436C167.603 238.265 168.52 238.298 169.302 238.536C170.094 238.758 170.716 239.137 171.168 239.671C171.63 240.191 171.919 240.805 172.035 241.516C172.152 242.24 172.078 242.907 171.812 243.518C171.545 244.115 171.139 244.613 170.596 245.012C171.371 245.21 172.012 245.579 172.518 246.118C173.024 246.657 173.345 247.341 173.479 248.171C173.625 249.066 173.521 249.886 173.17 250.632C172.829 251.363 172.293 251.97 171.561 252.454C170.829 252.937 169.969 253.26 168.982 253.42C167.995 253.58 167.078 253.547 166.231 253.32C165.396 253.091 164.696 252.685 164.128 252.101C163.572 251.503 163.221 250.756 163.076 249.861C162.941 249.032 163.029 248.282 163.339 247.61C163.646 246.925 164.137 246.372 164.812 245.952ZM169.414 242.347C169.309 241.702 169.031 241.234 168.578 240.943C168.139 240.65 167.584 240.558 166.912 240.667C166.254 240.774 165.757 241.037 165.42 241.456C165.096 241.874 164.987 242.412 165.094 243.07C165.19 243.662 165.464 244.104 165.917 244.395C166.382 244.684 166.931 244.777 167.563 244.674C168.194 244.572 168.686 244.31 169.036 243.888C169.384 243.453 169.51 242.94 169.414 242.347ZM167.89 246.688C167.139 246.81 166.558 247.1 166.147 247.559C165.748 248.015 165.606 248.599 165.722 249.31C165.828 249.968 166.14 250.471 166.655 250.819C167.182 251.153 167.834 251.256 168.61 251.13C169.387 251.004 169.965 250.694 170.344 250.2C170.723 249.706 170.86 249.137 170.756 248.492C170.642 247.794 170.324 247.292 169.802 246.985C169.277 246.665 168.64 246.566 167.89 246.688ZM174.644 241.295C174.497 239.968 174.793 238.88 175.533 238.03C176.284 237.165 177.364 236.618 178.772 236.389C179.733 236.233 180.583 236.27 181.323 236.501C182.061 236.719 182.647 237.09 183.084 237.613C183.531 238.122 183.813 238.738 183.931 239.461C184.065 240.291 183.962 241.03 183.622 241.68C183.293 242.314 182.848 242.778 182.288 243.072L182.301 243.151C183.102 243.263 183.763 243.588 184.282 244.125C184.815 244.66 185.158 245.401 185.312 246.349C185.44 247.139 185.37 247.873 185.102 248.551C184.847 249.228 184.393 249.801 183.74 250.272C183.098 250.727 182.283 251.035 181.296 251.196C179.809 251.438 178.538 251.259 177.481 250.661C176.425 250.063 175.752 249.037 175.463 247.585L178.147 247.149C178.278 247.789 178.58 248.274 179.052 248.602C179.535 248.916 180.139 249.013 180.862 248.896C181.534 248.787 182.017 248.519 182.312 248.093C182.619 247.651 182.724 247.134 182.628 246.542C182.5 245.752 182.158 245.227 181.602 244.966C181.047 244.705 180.243 244.66 179.19 244.831L178.617 244.924L178.249 242.654L178.821 242.561C180.69 242.257 181.523 241.48 181.32 240.23C181.228 239.664 180.986 239.251 180.592 238.991C180.212 238.728 179.706 238.649 179.074 238.751C178.456 238.852 178.003 239.101 177.716 239.499C177.441 239.881 177.318 240.333 177.349 240.855L174.644 241.295ZM186.462 239.374C186.314 238.047 186.61 236.959 187.35 236.109C188.102 235.244 189.181 234.697 190.589 234.469C191.55 234.313 192.4 234.35 193.14 234.581C193.878 234.799 194.465 235.169 194.901 235.693C195.348 236.201 195.631 236.817 195.748 237.541C195.883 238.37 195.78 239.109 195.44 239.759C195.11 240.394 194.666 240.858 194.105 241.151L194.118 241.23C194.92 241.343 195.581 241.668 196.1 242.205C196.633 242.74 196.976 243.481 197.129 244.429C197.258 245.218 197.188 245.952 196.92 246.631C196.665 247.307 196.211 247.881 195.558 248.351C194.916 248.807 194.101 249.115 193.114 249.275C191.627 249.517 190.355 249.339 189.299 248.74C188.243 248.142 187.57 247.117 187.28 245.664L189.965 245.228C190.096 245.869 190.398 246.353 190.87 246.682C191.353 246.995 191.956 247.093 192.68 246.975C193.351 246.866 193.835 246.599 194.13 246.172C194.437 245.731 194.542 245.214 194.446 244.622C194.318 243.832 193.976 243.307 193.42 243.046C192.864 242.785 192.06 242.74 191.007 242.911L190.435 243.004L190.066 240.734L190.639 240.641C192.508 240.337 193.341 239.56 193.138 238.31C193.046 237.744 192.803 237.331 192.41 237.07C192.029 236.808 191.523 236.728 190.892 236.831C190.273 236.931 189.821 237.18 189.534 237.578C189.258 237.961 189.136 238.413 189.167 238.935L186.462 239.374ZM201.132 240.05C199.705 239.579 198.875 238.627 198.642 237.192C198.527 236.481 198.6 235.808 198.861 235.171C199.134 234.519 199.604 233.963 200.272 233.503C200.952 233.028 201.818 232.705 202.871 232.534C203.924 232.363 204.841 232.396 205.622 232.634C206.415 232.856 207.037 233.234 207.488 233.769C207.951 234.288 208.24 234.903 208.355 235.614C208.472 236.338 208.398 237.005 208.133 237.615C207.865 238.213 207.46 238.711 206.916 239.11C207.692 239.308 208.332 239.677 208.838 240.216C209.345 240.755 209.665 241.439 209.8 242.268C209.945 243.163 209.842 243.984 209.49 244.73C209.149 245.461 208.613 246.068 207.881 246.551C207.149 247.035 206.29 247.357 205.303 247.518C204.315 247.678 203.398 247.645 202.551 247.418C201.717 247.188 201.016 246.782 200.449 246.199C199.892 245.601 199.541 244.854 199.396 243.959C199.262 243.13 199.349 242.379 199.659 241.708C199.966 241.023 200.458 240.47 201.132 240.05ZM205.734 236.445C205.63 235.8 205.351 235.332 204.899 235.041C204.459 234.747 203.904 234.655 203.233 234.764C202.575 234.871 202.077 235.135 201.74 235.554C201.416 235.971 201.307 236.509 201.414 237.167C201.51 237.759 201.785 238.201 202.237 238.492C202.703 238.781 203.251 238.875 203.883 238.772C204.515 238.669 205.006 238.407 205.356 237.986C205.704 237.551 205.83 237.037 205.734 236.445ZM204.21 240.786C203.46 240.908 202.879 241.198 202.467 241.657C202.068 242.113 201.927 242.697 202.042 243.407C202.149 244.065 202.46 244.569 202.976 244.917C203.503 245.25 204.154 245.354 204.931 245.228C205.707 245.101 206.285 244.791 206.664 244.297C207.043 243.804 207.181 243.234 207.076 242.589C206.963 241.892 206.645 241.39 206.122 241.083C205.598 240.763 204.96 240.664 204.21 240.786ZM210.388 234.21L209.975 231.663L214.732 230.89L217.068 245.281L214.225 245.743L212.303 233.898L210.388 234.21Z" fill="white"/>
<path d="M125.728 142.969L122.682 146.771C123.414 148.321 124.328 149.778 125.402 151.112C126.509 152.429 127.774 153.604 129.168 154.609L133.558 152.425C136.017 151.201 138.978 151.566 141.035 153.349L144.18 156.074C145.451 157.166 146.251 158.713 146.409 160.386C146.567 162.06 146.072 163.728 145.028 165.038C141.373 169.679 134.977 172.087 129.391 168.978C124.481 166.239 120.114 162.612 116.509 158.28C112.902 153.971 110.151 149.007 108.404 143.658C106.452 137.637 110.143 131.965 115.472 129.369C118.649 127.819 122.495 128.968 124.244 131.991L126.306 135.556C127.662 137.903 127.438 140.837 125.728 142.969Z" fill="white"/>
</svg>
