<svg width="304" height="332" viewBox="0 0 304 332" fill="none" xmlns="http://www.w3.org/2000/svg">
<rect width="213.881" height="267.971" rx="24" transform="matrix(0.915547 0.402211 -0.401765 0.915743 108.151 0.00012207)" fill="#F1C935"/>
<path d="M57.9639 202.975L52.3553 215.758L49.7917 214.632L53.4398 206.317L46.3676 213.128L44.4266 212.275L44.6322 202.448L40.9842 210.763L38.4207 209.637L44.0293 196.853L46.9407 198.132L46.8354 209.423L55.0708 201.704L57.9639 202.975ZM56.4724 211.472C56.9224 210.447 57.5229 209.625 58.2739 209.009C59.0372 208.398 59.8605 208.031 60.7438 207.909C61.6393 207.793 62.5204 207.925 63.3871 208.306C64.144 208.639 64.7362 209.081 65.1638 209.633C65.6036 210.19 65.8927 210.776 66.0309 211.39L66.6657 209.943L69.2475 211.077L64.796 221.224L62.2141 220.089L62.865 218.606C62.3265 218.937 61.6946 219.133 60.9694 219.193C60.2617 219.246 59.5295 219.107 58.7726 218.774C57.9181 218.399 57.2333 217.836 56.7181 217.085C56.2151 216.34 55.9302 215.479 55.8634 214.503C55.8141 213.52 56.0171 212.51 56.4724 211.472ZM64.4399 215.016C64.7131 214.393 64.8241 213.809 64.7728 213.262C64.7268 212.703 64.5472 212.216 64.234 211.802C63.9261 211.375 63.5341 211.058 63.058 210.848C62.5819 210.639 62.0915 210.562 61.5869 210.617C61.0823 210.672 60.6027 210.869 60.1481 211.208C59.7112 211.541 59.3587 212.012 59.0909 212.623C58.823 213.233 58.7094 213.824 58.75 214.395C58.8081 214.96 58.9851 215.452 59.2808 215.874C59.5887 216.3 59.9746 216.615 60.4385 216.819C60.9145 217.028 61.411 217.108 61.9278 217.058C62.45 216.996 62.9296 216.799 63.3666 216.467C63.8089 216.123 64.1667 215.639 64.4399 215.016ZM77.5286 214.54C78.2976 214.878 78.9062 215.35 79.3544 215.954C79.8079 216.547 80.0549 217.245 80.0952 218.049C80.1531 218.846 79.9811 219.703 79.5794 220.619L76.9679 226.571L74.4044 225.445L76.8632 219.84C77.2167 219.035 77.2858 218.329 77.0705 217.725C76.8605 217.109 76.4076 216.647 75.7118 216.342C75.0037 216.031 74.3458 216.004 73.7379 216.261C73.1476 216.511 72.6756 217.04 72.3221 217.845L69.8633 223.45L67.2997 222.324L73.2458 208.771L75.8094 209.897L73.7604 214.567C74.2828 214.272 74.8723 214.123 75.5287 214.121C76.1906 214.106 76.8572 214.245 77.5286 214.54ZM80.9883 222.242C81.4383 221.217 82.0388 220.396 82.7899 219.779C83.5531 219.168 84.3764 218.801 85.2597 218.68C86.1552 218.563 87.0363 218.695 87.903 219.076C88.6599 219.409 89.2521 219.851 89.6797 220.403C90.1196 220.96 90.4086 221.546 90.5468 222.16L91.1816 220.713L93.7635 221.847L89.3119 231.994L86.7301 230.86L87.3809 229.376C86.8424 229.707 86.2105 229.903 85.4853 229.963C84.7776 230.016 84.0454 229.877 83.2885 229.544C82.434 229.169 81.7492 228.606 81.234 227.855C80.731 227.11 80.4461 226.249 80.3793 225.273C80.33 224.291 80.533 223.28 80.9883 222.242ZM88.9558 225.786C89.229 225.164 89.34 224.579 89.2887 224.032C89.2428 223.473 89.0631 222.986 88.7499 222.572C88.442 222.146 88.05 221.828 87.5739 221.619C87.0978 221.409 86.6074 221.332 86.1028 221.387C85.5982 221.442 85.1186 221.639 84.6641 221.979C84.2271 222.311 83.8746 222.782 83.6068 223.393C83.339 224.003 83.2253 224.594 83.2659 225.165C83.3241 225.73 83.501 226.223 83.7967 226.644C84.1046 227.07 84.4905 227.385 84.9544 227.589C85.4305 227.798 85.9269 227.878 86.4437 227.828C86.9659 227.767 87.4455 227.569 87.8825 227.237C88.3249 226.893 88.6826 226.409 88.9558 225.786ZM100.325 220.667L94.3792 234.22L91.8156 233.094L97.7618 219.541L100.325 220.667ZM98.4946 229.933C98.9446 228.908 99.5451 228.086 100.296 227.47C101.059 226.858 101.883 226.492 102.766 226.37C103.661 226.254 104.543 226.386 105.409 226.767C106.166 227.099 106.758 227.542 107.186 228.094C107.626 228.651 107.915 229.237 108.053 229.851L108.688 228.404L111.27 229.538L106.818 239.685L104.236 238.55L104.887 237.067C104.349 237.398 103.717 237.594 102.992 237.654C102.284 237.707 101.552 237.567 100.795 237.235C99.9403 236.86 99.2554 236.297 98.7403 235.546C98.2373 234.801 97.9524 233.94 97.8855 232.964C97.8362 231.981 98.0393 230.971 98.4946 229.933ZM106.462 233.477C106.735 232.854 106.846 232.27 106.795 231.723C106.749 231.164 106.569 230.677 106.256 230.263C105.948 229.836 105.556 229.518 105.08 229.309C104.604 229.1 104.114 229.023 103.609 229.078C103.104 229.133 102.625 229.33 102.17 229.669C101.733 230.002 101.381 230.473 101.113 231.083C100.845 231.694 100.732 232.285 100.772 232.856C100.83 233.42 101.007 233.913 101.303 234.334C101.611 234.761 101.997 235.076 102.461 235.28C102.937 235.489 103.433 235.569 103.95 235.519C104.472 235.457 104.952 235.26 105.389 234.928C105.831 234.583 106.189 234.1 106.462 233.477ZM114.925 243.246L114.22 239.179L110.988 241.516L108.242 240.31L113.79 236.674L112.656 230.147L115.55 231.418L116.245 235.459L119.486 233.148L122.233 234.354L116.683 237.945L117.818 244.517L114.925 243.246ZM136.324 240.37C137.569 240.917 138.402 241.741 138.821 242.843C139.258 243.938 139.176 245.169 138.577 246.537L135.965 252.489L133.401 251.363L135.86 245.759C136.208 244.965 136.272 244.272 136.052 243.68C135.836 243.076 135.381 242.621 134.685 242.315C133.989 242.009 133.34 241.979 132.737 242.224C132.152 242.462 131.686 242.978 131.337 243.772L128.879 249.376L126.315 248.25L128.774 242.645C129.122 241.852 129.186 241.159 128.965 240.567C128.75 239.962 128.294 239.507 127.598 239.202C126.89 238.891 126.235 238.858 125.633 239.103C125.048 239.341 124.581 239.857 124.233 240.65L121.774 246.255L119.211 245.129L123.662 234.982L126.226 236.108L125.687 237.335C126.204 237.053 126.773 236.902 127.393 236.883C128.025 236.87 128.652 237 129.275 237.273C130.068 237.622 130.701 238.104 131.174 238.719C131.652 239.322 131.925 240.01 131.993 240.783C132.58 240.342 133.263 240.081 134.04 240C134.831 239.925 135.592 240.048 136.324 240.37ZM144.68 242.774C144.228 242.575 143.911 242.269 143.729 241.854C143.565 241.432 143.576 241.007 143.764 240.58C143.951 240.153 144.253 239.863 144.669 239.711C145.103 239.552 145.546 239.572 145.997 239.77C146.449 239.968 146.757 240.279 146.922 240.7C147.104 241.115 147.101 241.536 146.913 241.964C146.726 242.391 146.415 242.684 145.981 242.843C145.565 242.995 145.131 242.972 144.68 242.774ZM145.413 244.538L140.961 254.684L138.398 253.558L142.849 243.411L145.413 244.538ZM147.477 254.335L143.076 258.54L141.428 257.816L144.877 253.193L147.477 254.335ZM47.518 226.784L41.9094 239.568L39.3458 238.441L42.9939 230.126L35.9217 236.937L33.9807 236.084L34.1863 226.257L30.5383 234.572L27.9747 233.446L33.5834 220.662L36.4948 221.941L36.3895 233.232L44.6249 225.513L47.518 226.784ZM58.472 234.742L54.0205 244.888L51.4386 243.754L52.0011 242.472C51.4787 242.767 50.8926 242.924 50.243 242.945C49.611 242.958 48.9837 242.828 48.3611 242.555C47.5676 242.206 46.938 241.733 46.4723 241.135C46.0119 240.525 45.7467 239.819 45.6766 239.016C45.624 238.207 45.796 237.35 46.1924 236.447L48.8039 230.494L51.3674 231.621L48.9166 237.207C48.5631 238.012 48.4913 238.724 48.7013 239.34C48.9166 239.944 49.3722 240.399 50.068 240.705C50.7761 241.016 51.4252 241.047 52.0156 240.796C52.6113 240.534 53.0859 239.999 53.4394 239.194L55.8902 233.607L58.472 234.742ZM73.6636 241.241C74.9087 241.788 75.741 242.612 76.1604 243.714C76.5973 244.809 76.5158 246.04 75.9158 247.407L73.3043 253.36L70.7408 252.234L73.1996 246.629C73.5478 245.836 73.6116 245.143 73.3908 244.551C73.1755 243.946 72.7199 243.491 72.0241 243.186C71.3283 242.88 70.6791 242.85 70.0766 243.095C69.4916 243.333 69.025 243.849 68.6768 244.642L66.218 250.247L63.6545 249.12L66.1133 243.516C66.4615 242.722 66.5252 242.03 66.3045 241.438C66.0892 240.833 65.6336 240.378 64.9378 240.073C64.2297 239.761 63.5745 239.728 62.9719 239.973C62.3869 240.212 61.9204 240.728 61.5722 241.521L59.1134 247.126L56.5498 245.999L61.0014 235.853L63.5649 236.979L63.0266 238.206C63.5436 237.924 64.1121 237.773 64.732 237.754C65.364 237.74 65.9913 237.87 66.6139 238.144C67.4074 238.492 68.0404 238.974 68.513 239.59C68.9909 240.193 69.2642 240.881 69.3328 241.654C69.9195 241.212 70.6018 240.952 71.3797 240.871C72.1699 240.796 72.9312 240.919 73.6636 241.241ZM82.1012 246.892C82.6451 246.548 83.2708 246.35 83.9785 246.297C84.6984 246.249 85.4306 246.388 86.1753 246.715C87.042 247.096 87.7295 247.653 88.2379 248.386C88.7584 249.125 89.046 249.979 89.1006 250.95C89.1728 251.913 88.9813 252.914 88.5259 253.952C88.0706 254.99 87.4586 255.821 86.69 256.444C85.939 257.061 85.113 257.433 84.2122 257.562C83.3235 257.696 82.4458 257.572 81.5791 257.192C80.8222 256.859 80.2212 256.42 79.776 255.875C79.3484 255.323 79.0682 254.734 78.9353 254.108L78.3005 255.555L75.737 254.428L81.6831 240.875L84.2466 242.002L82.1012 246.892ZM85.9075 252.802C86.1753 252.191 86.2775 251.61 86.214 251.058C86.168 250.499 85.9884 250.012 85.6752 249.598C85.3741 249.189 84.9855 248.88 84.5094 248.671C84.0456 248.467 83.5525 248.396 83.0303 248.458C82.5257 248.513 82.0461 248.71 81.5916 249.049C81.1492 249.393 80.7941 249.871 80.5263 250.481C80.2584 251.092 80.1475 251.677 80.1934 252.236C80.2516 252.8 80.4285 253.293 80.7242 253.714C81.0375 254.128 81.4261 254.437 81.8899 254.641C82.366 254.85 82.859 254.921 83.369 254.854C83.8912 254.792 84.3735 254.589 84.8158 254.245C85.2704 253.905 85.6343 253.424 85.9075 252.802ZM89.7296 254.481C90.1796 253.455 90.7801 252.634 91.5311 252.017C92.2944 251.406 93.1176 251.04 94.0009 250.918C94.8964 250.802 95.7776 250.934 96.6443 251.315C97.4011 251.647 97.9934 252.089 98.421 252.641C98.8608 253.199 99.1498 253.784 99.2881 254.398L99.9229 252.952L102.505 254.086L98.0531 264.232L95.4713 263.098L96.1222 261.615C95.5836 261.946 94.9518 262.142 94.2265 262.202C93.5189 262.255 92.7866 262.115 92.0298 261.783C91.1753 261.407 90.4904 260.844 89.9752 260.094C89.4723 259.348 89.1874 258.488 89.1205 257.512C89.0712 256.529 89.2742 255.519 89.7296 254.481ZM97.6971 258.025C97.9703 257.402 98.0812 256.817 98.0299 256.271C97.984 255.711 97.8044 255.225 97.4911 254.81C97.1832 254.384 96.7912 254.066 96.3151 253.857C95.839 253.648 95.3487 253.571 94.8441 253.626C94.3395 253.681 93.8599 253.878 93.4053 254.217C92.9683 254.549 92.6159 255.021 92.348 255.631C92.0802 256.242 91.9666 256.833 92.0072 257.404C92.0653 257.968 92.2422 258.461 92.5379 258.882C92.8458 259.309 93.2317 259.624 93.6956 259.828C94.1717 260.037 94.6682 260.117 95.185 260.067C95.7072 260.005 96.1868 259.808 96.6238 259.476C97.0661 259.131 97.4239 258.647 97.6971 258.025ZM106.839 254.548C106.387 254.35 106.07 254.043 105.888 253.628C105.724 253.206 105.736 252.782 105.923 252.354C106.11 251.927 106.412 251.637 106.829 251.485C107.262 251.326 107.705 251.346 108.157 251.544C108.608 251.743 108.916 252.053 109.081 252.475C109.263 252.89 109.26 253.311 109.072 253.738C108.885 254.165 108.574 254.459 108.141 254.618C107.724 254.77 107.291 254.747 106.839 254.548ZM107.572 256.312L103.12 266.458L100.557 265.332L105.008 255.186L107.572 256.312Z" fill="white"/>
<path d="M167.344 179.448C170.212 177.218 172.471 174.316 173.92 170.998C178.827 159.813 173.588 146.696 162.217 141.701C150.846 136.706 137.651 141.723 132.743 152.909C130.639 157.683 130.327 163.062 131.862 168.088L131.873 168.128C131.878 168.139 131.881 168.152 131.884 168.162L131.838 168.141L138.458 186.268C138.703 186.94 139.084 187.556 139.578 188.08C140.071 188.604 140.666 189.024 141.327 189.314C141.987 189.605 142.699 189.759 143.419 189.768C144.138 189.776 144.85 189.64 145.51 189.366L163.326 181.975L163.28 181.954L163.31 181.94L163.313 181.939C163.445 181.875 163.577 181.811 163.709 181.744C164.995 181.097 166.213 180.328 167.346 179.448L167.344 179.448ZM149.939 169.699C148.012 168.853 146.494 167.287 145.72 165.348C144.945 163.409 144.977 161.255 145.809 159.359C146.641 157.463 148.204 155.982 150.155 155.24C152.105 154.498 154.284 154.557 156.211 155.403C158.138 156.25 159.656 157.815 160.431 159.754C161.206 161.693 161.173 163.848 160.342 165.744C159.51 167.639 157.947 169.121 155.996 169.863C154.045 170.605 151.866 170.546 149.939 169.699Z" fill="white"/>
</svg>
